# AST/ASF file generated using VICON BodyLanguage
# -----------------------------------------------
:version 1.10
:name VICON
:units
  mass 1.0
  length 0.45
  angle deg
:documentation
   .ast/.asf automatically generated from VICON data using
   VICON BodyBuilder and BodyLanguage model FoxedUp or BRILLIANT.MOD
:root
   order TX TY TZ RX RY RZ
   axis XYZ
   position 0 0 0  
   orientation 0 0 0 
:bonedata
  begin
     id 1 
     name lhipjoint
     direction 0.541323 -0.757556 0.364798 
     length 2.47576 
     axis 0 0 0  XYZ
  end
  begin
     id 2 
     name lfemur
     direction 0.34202 -0.939693 0  
     length 7.46493  
     axis 0 0 20  XYZ
    dof rx ry rz
    limits (-160.0 20.0)
           (-70.0 70.0)
           (-60.0 70.0)
  end
  begin
     id 3 
     name ltibia
     direction 0.34202 -0.939693 0   
     length 7.73805   
     axis 0 0 20   XYZ
    dof rx
    limits (-10.0 170.0)
  end
  begin
     id 4 
     name lfoot
     direction 0.107174 -0.294458 0.949636   
     length 2.25864   
     axis -90 7.62852e-016 20   XYZ
    dof rx rz
    limits (-45.0 90.0)
           (-70.0 20.0)
  end
  begin
     id 5 
     name ltoes
     direction 1.53606e-011 -4.21934e-011 1   
     length 1.12451   
     axis -90 7.62852e-016 20   XYZ
    dof rx
    limits (-90.0 20.0)
  end
  begin
     id 6 
     name rhipjoint
     direction -0.524745 -0.766967 0.36933   
     length 2.44538  
     axis 0 0 0  XYZ 
  end
  begin
     id 7 
     name rfemur
     direction -0.34202 -0.939693 0   
     length 7.61604   
     axis 0 0 -20   XYZ
    dof rx ry rz
    limits (-160.0 20.0)
           (-70.0 70.0)
           (-70.0 60.0)
  end
  begin
     id 8 
     name rtibia
     direction -0.34202 -0.939693 0   
     length 7.61056   
     axis 0 0 -20   XYZ
    dof rx
    limits (-10.0 170.0)
 end
 begin
     id 9 
     name rfoot
     direction -0.12616 -0.346623 0.929482   
     length 2.46372  
     axis -90 -7.62852e-016 -20   XYZ
    dof rx rz
    limits (-45.0 90.0)
           (-20.0 70.0)
  end
  begin
     id 10 
     name rtoes
     direction -1.53531e-011 -4.22004e-011 1   
     length 1.21611   
     axis -90 -7.62852e-016 -20   XYZ
    dof rx
    limits (-90.0 20.0)
  end
  begin
     id 11 
     name lowerback
     direction -0.000778023 0.997293 -0.0735223   
     length 2.06139   
     axis 0 0 0   XYZ
    dof rx ry rz
    limits (-20.0 45.0)
           (-30.0 30.0)
           (-30.0 30.0)
  end
  begin
     id 12 
     name upperback
     direction 0.0222598 0.999722 -0.0078355   
     length 2.06383   
     axis 0 0 0   XYZ
    dof rx ry rz
    limits (-20.0 45.0)
           (-30.0 30.0)
           (-30.0 30.0)
  end
  begin
     id 13 
     name thorax
     direction 0.0219654 0.999405 0.0265994   
     length 2.07163   
     axis 0 0 0   XYZ
    dof rx ry rz
    limits (-20.0 45.0)
           (-30.0 30.0)
           (-30.0 30.0)
  end
  begin
     id 14 
     name lowerneck
     direction 0.0213282 0.988147 0.15202   
     length 1.75969   
     axis 0 0 0   XYZ
    dof rx ry rz
    limits (-20.0 45.0)
           (-30.0 30.0)
           (-30.0 30.0)
  end
  begin
     id 15 
     name upperneck
     direction -0.0546456 0.982624 -0.177379   
     length 1.79244   
     axis 0 0 0   XYZ
    dof rx ry rz
    limits (-20.0 45.0)
           (-30.0 30.0)
           (-30.0 30.0)
  end
  begin
     id 16
     name head
     direction -0.0199987 0.996855 -0.076686  
     length 1.80555  
     axis 0 0 0   XYZ
    dof rx ry rz
    limits (-20.0 45.0)
           (-30.0 30.0)
           (-30.0 30.0)
  end
  begin
     id 17 
     name lclavicle
     direction 0.929565 0.363219 -0.063096  
     length 3.55722  
     axis 0 0 0   XYZ
    dof ry rz
    limits (-20.0 10.0)
           (0.0 20.0)
  end
  begin
     id 18 
     name lhumerus
     direction 1 -4.48993e-011 -2.36203e-027   
     length 4.92785   
     axis 180 -30 -90   XYZ
    dof rx ry rz
    limits (-60.0 90.0)
           (-90.0 90.0)
           (-90.0 90.0)
  end
  begin
     id 19
     name lradius
     direction 1 -4.48947e-011 2.02997e-027   
     length 3.44052   
     axis 180 -30 -90   XYZ
    dof rx
    limits (-10.0 170.0)
  end
  begin
     id 20
     name lwrist
     direction 1 -4.48962e-011 1.45991e-027   
     length 1.72026   
     axis 1.49639e-024 90 90   XYZ
    dof ry
    limits (-180.0 0.0)
 end
  begin
     id 21 
     name lhand
     direction 1 -4.48984e-011 2.91906e-027   
     length 0.654326   
     axis -1.863e-015 90 90   XYZ
    dof rx rz
    limits (-90.0 90.0)
           (-45.0 45.0)
  end
  begin
     id 22 
     name lfingers
     direction 1 -4.48961e-011 5.83968e-027   
     length 0.527534   
     axis -3.72598e-015 90 90   XYZ
    dof rx
    limits (0.0 90.0)
  end
  begin
     id 23
     name lthumb
     direction 0.707107 -6.34963e-011 0.707107   
     length 0.757437   
     axis -90 45 -6.68868e-015   XYZ
    dof rx rz
    limits (-45.0 45.0)
           (-45.0 45.0)
  end
  begin
     id 24 
     name rclavicle
     direction -0.902944 0.422599 -0.0781198   
     length 3.54432  
     axis 0 0 0   XYZ 
    dof ry rz
    limits (-10.0 20.0)
           (-20.0 0.0)
  end
  begin
     id 25 
     name rhumerus
     direction -1 -4.48953e-011 -4.75835e-028  
     length 5.09181   
     axis 180 30 90   XYZ
    dof rx ry rz
    limits (-90.0 60.0)
           (-90.0 90.0)
           (-90.0 90.0)
  end
  begin
     id 26 
     name rradius
     direction -1 -4.48986e-011 -3.25889e-027   
     length 3.49865   
     axis 180 30 90   XYZ
    dof rx
    limits (-10.0 170.0)
  end
  begin
     id 27 
     name rwrist
     direction -1 -4.48963e-011 1.45989e-027   
     length 1.74933   
     axis 1.49639e-024 -90 -90   XYZ
    dof ry
    limits (-180.0 0.0)
  end
  begin
     id 28
     name rhand
     direction -1 -4.49003e-011 2.91844e-027   
     length 0.66641   
     axis -1.863e-015 -90 -90   XYZ
    dof rx rz
    limits (-90.0 90.0)
           (-45.0 45.0)
  end
  begin
     id 29
     name rfingers
     direction -1 -4.48973e-011 5.83886e-027   
     length 0.537277   
     axis -3.72598e-015 -90 -90   XYZ
    dof rx
    limits (0.0 90.0)
  end
  begin
     id 30
     name rthumb
     direction -0.707107 -6.34976e-011 0.707107   
     length 0.771425   
     axis -90 -45 6.68868e-015   XYZ
    dof rx rz
    limits (-45.0 45.0)
           (-45.0 45.0)
  end
:hierarchy
  begin
    root lhipjoint rhipjoint lowerback
    lhipjoint lfemur
    lfemur ltibia
    ltibia lfoot
    lfoot ltoes
    rhipjoint rfemur
    rfemur rtibia
    rtibia rfoot
    rfoot rtoes
    lowerback upperback
    upperback thorax
    thorax lowerneck lclavicle rclavicle
    lowerneck upperneck
    upperneck head
    lclavicle lhumerus
    lhumerus lradius
    lradius lwrist
    lwrist lhand lthumb
    lhand lfingers
    rclavicle rhumerus
    rhumerus rradius
    rradius rwrist
    rwrist rhand rthumb
    rhand rfingers
  end

#!OML:ASF H:\LiuWeirdWalks\Patient Classification 1\Patient 1\Session 1\male.ASF
:FULLY-SPECIFIED
:DEGREES
35
root 0.596809 18.3182 5.67356 1.99556 3.57556 -1.48191
lowerback 2.08677 -0.424854 -0.938422
upperback -0.574014 -0.563312 1.72185
thorax -1.73209 -0.262196 2.31325
lowerneck -22.423 0.578803 4.2169
upperneck 17.0415 0.414439 -4.51186
head 9.04934 -0.0423519 -2.18956
rclavicle 1.56543e-015 -1.90833e-014
rhumerus -22.1153 -30.7743 -0.70973
rradius 21.7557
rwrist 6.07295
rhand -11.9211 -10.5345
rfingers 7.12502
rthumb 14.133 -40.0338
lclavicle 1.56543e-015 -1.90833e-014
lhumerus -21.8672 26.3145 7.40213
lradius 21.6286
lwrist -9.23392
lhand -14.0719 5.34941
lfingers 7.12502
lthumb 12.0597 34.9819
rfemur 0.0759952 0.88754 14.8211
rtibia 14.4465
rfoot -5.61077 -25.071
rtoes -4.83001
lfemur 0 0 0
ltibia 0
lfoot 0 0
ltoes 0
36
root 0.598489 18.3173 5.67517 1.97808 3.58538 -1.4764
lowerback 2.1087 -0.42721 -0.936921
upperback -0.593762 -0.566196 1.72508
thorax -1.76452 -0.263192 2.31621
lowerneck -22.4112 0.592115 4.25827
upperneck 17.0503 0.428169 -4.54934
head 9.05117 -0.037314 -2.20749
rclavicle 1.08897e-014 1.53064e-014
rhumerus -22.1245 -30.8131 -0.634017
rradius 21.74
rwrist 6.20206
rhand -11.8503 -10.3913
rfingers 7.12502
rthumb 14.2012 -39.8858
lclavicle 1.08897e-014 1.53064e-014
lhumerus -21.8975 26.3512 7.35161
lradius 21.6077
lwrist -9.31576
lhand -14.0743 5.25781
lfingers 7.12502
lthumb 12.0575 34.8904
rfemur 0.100358 0.872513 14.8074
rtibia 14.4553
rfoot -5.62877 -25.0652
rtoes -4.82041
lfemur 0 0 0
ltibia 0
lfoot 0 0
ltoes 0
37
root 0.600273 18.3165 5.67687 1.96057 3.59533 -1.46304
lowerback 2.13022 -0.43253 -0.944871
upperback -0.612323 -0.573337 1.72692
thorax -1.79523 -0.266243 2.32321
lowerneck -22.3956 0.607674 4.30237
upperneck 17.0553 0.444792 -4.58973
head 9.05122 -0.0310424 -2.2264
rclavicle -1.79527e-015 1.17283e-014
rhumerus -22.12 -30.8254 -0.581926
rradius 21.7368
rwrist 6.25996
rhand -11.8056 -10.3092
rfingers 7.12502
rthumb 14.2443 -39.8007
lclavicle -1.79527e-015 1.17283e-014
lhumerus -21.9398 26.4234 7.28245
lradius 21.5764
lwrist -9.42668
lhand -14.0946 5.11563
lfingers 7.12502
lthumb 12.0379 34.7494
rfemur 0.123266 0.855181 14.7841
rtibia 14.468
rfoot -5.64502 -25.0573
rtoes -4.81801
lfemur 0 0 0
ltibia 0
lfoot 0 0
ltoes 0
38
root 0.602134 18.3157 5.67862 1.94459 3.60482 -1.44174
lowerback 2.14509 -0.437821 -0.959179
upperback -0.630049 -0.580671 1.72623
thorax -1.8213 -0.26938 2.33111
lowerneck -22.3769 0.6225 4.34159
upperneck 17.0607 0.461329 -4.62639
head 9.05086 -0.0246768 -2.24321
rclavicle 3.41661e-015 2.52457e-014
rhumerus -22.1131 -30.8216 -0.540817
rradius 21.742
rwrist 6.27261
rhand -11.7866 -10.2717
rfingers 7.12502
rthumb 14.2627 -39.7619
lclavicle 3.41661e-015 2.52457e-014
lhumerus -21.985 26.4921 7.2111
lradius 21.547
lwrist -9.51887
lhand -14.1138 4.96009
lfingers 7.12502
lthumb 12.0194 34.595
rfemur 0.143073 0.836828 14.7511
rtibia 14.4844
rfoot -5.66161 -25.0486
rtoes -4.81732
lfemur 0 0 0
ltibia 0
lfoot 0 0
ltoes 0
39
root 0.603966 18.3149 5.68034 1.93038 3.6145 -1.42112
lowerback 2.15347 -0.447087 -0.974312
upperback -0.641277 -0.5934 1.72521
thorax -1.8368 -0.275348 2.33921
lowerneck -22.3696 0.638395 4.37581
upperneck 17.0674 0.478592 -4.65413
head 9.05293 -0.0173917 -2.25611
rclavicle 7.50412e-015 -1.33186e-014
rhumerus -22.0908 -30.8154 -0.526538
rradius 21.7537
rwrist 6.23482
rhand -11.806 -10.2937
rfingers 7.12502
rthumb 14.244 -39.7853
lclavicle 7.50412e-015 -1.33186e-014
lhumerus -22.041 26.5599 7.13097
lradius 21.5259
lwrist -9.58865
lhand -14.1313 4.82937
lfingers 7.12502
lthumb 12.0025 34.4652
rfemur 0.160342 0.818068 14.719
rtibia 14.5016
rfoot -5.67605 -25.0396
rtoes -4.81799
lfemur 0 0 0
ltibia 0
lfoot 0 0
ltoes 0
40
root 0.605782 18.3143 5.68207 1.91655 3.6221 -1.40454
lowerback 2.15411 -0.455142 -0.982598
upperback -0.651369 -0.604321 1.72392
thorax -1.84693 -0.280547 2.34303
lowerneck -22.3437 0.655313 4.41526
upperneck 17.0489 0.496539 -4.68603
head 9.04312 -0.00977424 -2.2707
rclavicle 4.95719e-015 -3.00165e-014
rhumerus -22.0755 -30.8023 -0.512643
rradius 21.7664
rwrist 6.20274
rhand -11.8335 -10.3317
rfingers 7.12502
rthumb 14.2174 -39.8251
lclavicle 4.95719e-015 -3.00165e-014
lhumerus -22.0948 26.6052 7.05915
lradius 21.516
lwrist -9.62053
lhand -14.1384 4.75199
lfingers 7.12502
lthumb 11.9957 34.3882
rfemur 0.176387 0.800207 14.6914
rtibia 14.5183
rfoot -5.68843 -25.0299
rtoes -4.82461
lfemur 0 0 0
ltibia 0
lfoot 0 0
ltoes 0
41
root 0.60748 18.3137 5.68357 1.90438 3.62922 -1.39776
lowerback 2.15485 -0.463045 -0.981506
upperback -0.66234 -0.6147 1.72602
thorax -1.85811 -0.285546 2.34506
lowerneck -22.3048 0.671703 4.45706
upperneck 17.0037 0.514038 -4.72354
head 9.02182 -0.00277078 -2.2872
rclavicle 1.40392e-014 -1.98785e-016
rhumerus -22.0621 -30.7969 -0.497146
rradius 21.7747
rwrist 6.19488
rhand -11.8627 -10.3585
rfingers 7.12502
rthumb 14.1893 -39.8539
lclavicle 1.40392e-014 -1.98785e-016
lhumerus -22.1471 26.6239 6.99799
lradius 21.5176
lwrist -9.61539
lhand -14.1364 4.73116
lfingers 7.12502
lthumb 11.9976 34.3673
rfemur 0.189736 0.786871 14.676
rtibia 14.534
rfoot -5.70212 -25.0244
rtoes -4.82777
lfemur 0 0 0
ltibia 0
lfoot 0 0
ltoes 0
42
root 0.609132 18.313 5.68505 1.89215 3.63539 -1.39229
lowerback 2.15833 -0.471106 -0.978723
upperback -0.673594 -0.625232 1.72864
thorax -1.87111 -0.290618 2.34671
lowerneck -22.251 0.687753 4.50524
upperneck 16.9364 0.530899 -4.76967
head 8.99036 0.00349564 -2.30739
rclavicle 1.83441e-014 -2.10712e-014
rhumerus -22.0455 -30.8202 -0.476646
rradius 21.7709
rwrist 6.24529
rhand -11.8701 -10.3562
rfingers 7.12502
rthumb 14.1822 -39.8521
lclavicle 1.83441e-014 -2.10712e-014
lhumerus -22.2002 26.6297 6.9426
lradius 21.5289
lwrist -9.58303
lhand -14.1262 4.76518
lfingers 7.12502
lthumb 12.0074 34.4007
rfemur 0.202181 0.773141 14.6623
rtibia 14.551
rfoot -5.71479 -25.0173
rtoes -4.83543
lfemur 0 0 0
ltibia 0
lfoot 0 0
ltoes 0
43
root 0.610692 18.3124 5.68631 1.88184 3.64267 -1.38514
lowerback 2.16347 -0.478949 -0.97821
upperback -0.686991 -0.635517 1.73152
thorax -1.88724 -0.295492 2.34993
lowerneck -22.1887 0.703861 4.55804
upperneck 16.8555 0.548109 -4.82393
head 8.95279 0.00938259 -2.33084
rclavicle -5.92006e-015 -1.64991e-014
rhumerus -22.0317 -30.8484 -0.45272
rradius 21.7665
rwrist 6.31259
rhand -11.8603 -10.3363
rfingers 7.12502
rthumb 14.1916 -39.8315
lclavicle -5.92006e-015 -1.64991e-014
lhumerus -22.2495 26.6548 6.88747
lradius 21.5355
lwrist -9.57764
lhand -14.1059 4.82058
lfingers 7.12502
lthumb 12.027 34.455
rfemur 0.211349 0.759827 14.6474
rtibia 14.571
rfoot -5.73217 -25.0121
rtoes -4.83713
lfemur 0 0 0
ltibia 0
lfoot 0 0
ltoes 0
44
root 0.612265 18.3116 5.68754 1.87171 3.65309 -1.36938
lowerback 2.16825 -0.485566 -0.984102
upperback -0.70061 -0.6444 1.73159
thorax -1.90342 -0.299604 2.35381
lowerneck -22.128 0.711431 4.5948
upperneck 16.7857 0.556872 -4.86829
head 8.91889 0.0113928 -2.34956
rclavicle 6.14369e-015 9.14409e-015
rhumerus -22.0211 -30.8833 -0.42274
rradius 21.7602
rwrist 6.39483
rhand -11.836 -10.3105
rfingers 7.12502
rthumb 14.2151 -39.8041
lclavicle 6.14369e-015 9.14409e-015
lhumerus -22.2896 26.6902 6.83871
lradius 21.5369
lwrist -9.59529
lhand -14.0755 4.87408
lfingers 7.12502
lthumb 12.0563 34.5068
rfemur 0.219554 0.74243 14.6228
rtibia 14.5965
rfoot -5.75304 -25.006
rtoes -4.83831
lfemur 0 0 0
ltibia 0
lfoot 0 0
ltoes 0
45
root 0.613874 18.3109 5.68879 1.86223 3.66416 -1.3464
lowerback 2.16894 -0.491928 -0.996935
upperback -0.706639 -0.65327 1.72861
thorax -1.90947 -0.303799 2.35836
lowerneck -22.0979 0.717604 4.62539
upperneck 16.7309 0.563734 -4.90758
head 8.89534 0.0123943 -2.3662
rclavicle 1.93132e-014 -8.54774e-015
rhumerus -22.0073 -30.9264 -0.400036
rradius 21.7557
rwrist 6.45774
rhand -11.812 -10.2912
rfingers 7.12502
rthumb 14.2382 -39.7832
lclavicle 1.93132e-014 -8.54774e-015
lhumerus -22.3224 26.7611 6.78778
lradius 21.5271
lwrist -9.65453
lhand -14.0509 4.91943
lfingers 7.12502
lthumb 12.08 34.5507
rfemur 0.225525 0.722395 14.5897
rtibia 14.6276
rfoot -5.77818 -24.9984
rtoes -4.83957
lfemur 0 0 0
ltibia 0
lfoot 0 0
ltoes 0
46
root 0.615512 18.3102 5.68985 1.85583 3.676 -1.3187
lowerback 2.16259 -0.495787 -1.01128
upperback -0.706424 -0.658947 1.72242
thorax -1.90532 -0.306543 2.36019
lowerneck -22.1022 0.719323 4.64189
upperneck 16.7009 0.56549 -4.93411
head 8.88599 0.011198 -2.37743
rclavicle 2.55314e-015 -1.13307e-014
rhumerus -22.0016 -30.98 -0.372835
rradius 21.7514
rwrist 6.52118
rhand -11.7823 -10.2655
rfingers 7.12502
rthumb 14.2668 -39.7554
lclavicle 2.55314e-015 -1.13307e-014
lhumerus -22.3429 26.8117 6.75474
lradius 21.5228
lwrist -9.69052
lhand -14.0329 4.96899
lfingers 7.12502
lthumb 12.0974 34.5993
rfemur 0.226787 0.701896 14.5512
rtibia 14.6619
rfoot -5.8041 -24.9916
rtoes -4.83728
lfemur 0 0 0
ltibia 0
lfoot 0 0
ltoes 0
47
root 0.617126 18.3096 5.69078 1.85163 3.68545 -1.28912
lowerback 2.1512 -0.498758 -1.02738
upperback -0.698568 -0.663578 1.71435
thorax -1.89055 -0.308919 2.3609
lowerneck -22.1469 0.717245 4.64249
upperneck 16.7036 0.562677 -4.94354
head 8.89453 0.00836879 -2.38155
rclavicle -1.86361e-016 -4.77083e-015
rhumerus -21.9948 -31.0515 -0.348772
rradius 21.7415
rwrist 6.59521
rhand -11.7505 -10.2175
rfingers 7.12502
rthumb 14.2974 -39.7053
lclavicle -1.86361e-016 -4.77083e-015
lhumerus -22.3623 26.865 6.72327
lradius 21.5189
lwrist -9.7315
lhand -14.0183 4.98472
lfingers 7.12502
lthumb 12.1115 34.6142
rfemur 0.224877 0.683469 14.5108
rtibia 14.6953
rfoot -5.82605 -24.984
rtoes -4.83093
lfemur 0 0 0
ltibia 0
lfoot 0 0
ltoes 0
48
root 0.618776 18.309 5.69161 1.84719 3.69103 -1.26487
lowerback 2.13643 -0.498929 -1.03553
upperback -0.687016 -0.664267 1.70573
thorax -1.87036 -0.309504 2.35635
lowerneck -22.2053 0.714655 4.63988
upperneck 16.7165 0.55891 -4.94834
head 8.90888 0.00527821 -2.38392
rclavicle 2.19906e-014 5.96354e-015
rhumerus -21.9945 -31.1017 -0.328446
rradius 21.7353
rwrist 6.64785
rhand -11.7182 -10.1902
rfingers 7.12502
rthumb 14.3286 -39.6758
lclavicle 2.19906e-014 5.96354e-015
lhumerus -22.3776 26.8882 6.70255
lradius 21.5221
lwrist -9.74162
lhand -14.013 4.99203
lfingers 7.12502
lthumb 12.1166 34.6212
rfemur 0.22359 0.666794 14.4761
rtibia 14.7232
rfoot -5.84055 -24.9745
rtoes -4.82945
lfemur 0 0 0
ltibia 0
lfoot 0 0
ltoes 0
49
root 0.620372 18.3084 5.69223 1.84288 3.69143 -1.25083
lowerback 2.1219 -0.496529 -1.03427
upperback -0.674472 -0.661201 1.70021
thorax -1.84954 -0.308317 2.34956
lowerneck -22.2681 0.713168 4.6382
upperneck 16.7256 0.556501 -4.95514
head 8.9228 0.00260011 -2.38694
rclavicle -8.38623e-016 2.20651e-014
rhumerus -21.9992 -31.144 -0.305121
rradius 21.7276
rwrist 6.71223
rhand -11.6717 -10.16
rfingers 7.12502
rthumb 14.3733 -39.6424
lclavicle -8.38623e-016 2.20651e-014
lhumerus -22.3935 26.9049 6.68539
lradius 21.5271
lwrist -9.74088
lhand -14.0081 4.96379
lfingers 7.12502
lthumb 12.1213 34.5927
rfemur 0.223498 0.657712 14.4536
rtibia 14.7417
rfoot -5.84865 -24.967
rtoes -4.82655
lfemur 0 0 0
ltibia 0
lfoot 0 0
ltoes 0
